# Blender 4.3.2
# www.blender.org
o Cube
v 1.000000 2.000000 -1.000000
v 1.000000 0.000000 -1.000000
v 1.000000 2.000000 1.000000
v 1.000000 0.000000 1.000000
v -1.000000 2.000000 -1.000000
v -1.000000 0.000000 -1.000000
v -1.000000 2.000000 1.000000
v -1.000000 0.000000 1.000000
vn -0.0000 1.0000 -0.0000
vn -0.0000 -0.0000 1.0000
vn -1.0000 -0.0000 -0.0000
vn -0.0000 -1.0000 -0.0000
vn 1.0000 -0.0000 -0.0000
vn -0.0000 -0.0000 -1.0000
vt 0.979892 0.984387
vt 0.979892 0.993501
vt 0.032192 0.993501
vt 0.032191 0.984387
vt 0.970950 0.026841
vt 0.970950 0.974542
vt 0.023249 0.974542
vt 0.023249 0.026841
vt 0.979892 0.036686
vt 0.032191 0.984387
vt 0.032191 0.036686
vt 0.970950 0.026841
vt 0.023249 0.026841
vt 0.023249 0.013464
vt 0.970950 0.013464
vt 0.970950 0.026841
vt 0.023249 0.974542
vt 0.023249 0.026841
vt 0.023249 0.974542
vt 0.023249 0.026841
s 0
f 1/1/1 5/2/1 7/3/1 3/4/1
f 4/5/2 3/6/2 7/7/2 8/8/2
f 8/9/3 7/1/3 5/10/3 6/11/3
f 6/12/4 2/13/4 4/14/4 8/15/4
f 2/16/5 1/6/5 3/17/5 4/18/5
f 6/12/6 5/6/6 1/19/6 2/20/6
